# xmcd
#
# Track frame offsets: 
#        150
#        19684
#        44325
#        56674
#        83328
#        98003
#        114884
#        133644
#        149887
#        164053
#        183607
#
# Disc length: 2682 seconds
#
# Revision: 3
# Processed by: cddbd v1.5.2PL0 Copyright (c) Steve Scherf et al.
# Submitted via: ExactAudioCopy v1.0b4
#
DISCID=940a780b
DTITLE=Mike Auldridge, Jerry Douglas and Rob Ickes - Three Bells
DYEAR=2014
DGENRE=Country
TTITLE0=Silver Threads Among The Gold
TTITLE1=North
TTITLE2=Till There Was You - Moon River
TTITLE3=Dobro Heaven
TTITLE4=Sunrise Serenade
TTITLE5=The Perils Of Private Mulvaney
TTITLE6=The Three Bells
TTITLE7=For Buddy
TTITLE8=The Message
TTITLE9=Panhandle Rag
TTITLE10=I'm Using My Bible For A Roadmap
EXTD=
EXTT0=
EXTT1=
EXTT2=
EXTT3=
EXTT4=
EXTT5=
EXTT6=
EXTT7=
EXTT8=
EXTT9=
EXTT10=
PLAYORDER=
